<?xml version="1.0" encoding="utf-8"?>
<svg xmlns="http://www.w3.org/2000/svg" style="margin: auto; background: none; display: block; shape-rendering: auto;" width="280" height="250" preserveAspectRatio="xMidYMid">
<style type="text/css">
  text {
    text-anchor: middle; font-size: 46px; opacity: 0;
  }
</style>
<g style="transform-origin:140px 125px;transform:scale(1)">
<g transform="translate(140,125)">
  <g transform="translate(0,0)"><g class="path" style="transform: matrix(1, 0, 0, 1, 0, 0); transform-origin: -71.255px -3.76866px; animation: 1.03093s linear -0.604811s infinite normal forwards running bounce-c29df16f-11fa-47a1-8afd-d4294f23406c;"><path d="M11.22-32.06L17.02-14.35L17.48-14.35L24.20-31.83L30.54-31.65L30.73-11.87L31.60 0L25.39 0L25.62-11.96L25.12-24.06L19.60-8.83L13.94-8.56L8.79-24.06L8.37-11.96L8.69 0L2.99 0L3.63-11.18L3.91-30.91L11.22-32.06" fill="#0b1d27" stroke="none" stroke-width="none" transform="translate(-88.55002450942993,12.261337041854858)" style="fill: rgb(11, 29, 39);"></path></g><g class="path" style="transform: matrix(1, 0, 0, 1, 0, 0); transform-origin: -44px 0.671337px; animation: 1.03093s linear -0.52921s infinite normal forwards running bounce-c29df16f-11fa-47a1-8afd-d4294f23406c;"><path d="M45.31-4.69L45.31-4.69L45.31-4.69Q46.64-4.69 48.12-5.38L48.12-5.38L48.12-5.38Q49.59-6.07 50.42-6.76L50.42-6.76L51.24-7.45L53.36-4.88L53.36-4.88Q52.90-4.09 51.93-3.08L51.93-3.08L51.93-3.08Q50.97-2.07 49.98-1.36L49.98-1.36L49.98-1.36Q48.99-0.64 47.36-0.07L47.36-0.07L47.36-0.07Q45.72 0.51 43.98 0.51L43.98 0.51L43.98 0.51Q40.25 0.51 37.90-2.32L37.90-2.32L37.90-2.32Q35.56-5.15 35.56-9.61L35.56-9.61L35.56-9.61Q35.56-15.23 38.82-19.46L38.82-19.46L38.82-19.46Q42.09-23.69 46.46-23.69L46.46-23.69L46.46-23.69Q49.82-23.69 51.68-21.80L51.68-21.80L51.68-21.80Q53.54-19.92 53.54-16.51L53.54-16.51L53.54-16.51Q53.54-14.49 52.85-11.91L52.85-11.91L51.93-10.95L40.43-9.89L40.43-9.89Q41.22-4.69 45.31-4.69zM45.31-18.95L45.31-18.95L45.31-18.95Q43.29-18.95 41.91-17.32L41.91-17.32L41.91-17.32Q40.53-15.69 40.30-13.16L40.30-13.16L48.12-14.12L48.12-14.12Q48.25-15.18 48.25-15.87L48.25-15.87L48.25-15.87Q48.25-18.95 45.31-18.95" fill="#0b1d27" stroke="none" stroke-width="none" transform="translate(-88.55002450942993,12.261337041854858)" style="fill: rgb(11, 29, 39);"></path></g><g class="path" style="transform: matrix(1, 0, 0, 1, 0, 0); transform-origin: -15.32px 0.671337px; animation: 1.03093s linear -0.453608s infinite normal forwards running bounce-c29df16f-11fa-47a1-8afd-d4294f23406c;"><path d="M70.89-11.64L70.89-11.64Q70.89-14.81 70.33-15.87L70.33-15.87L70.33-15.87Q69.78-16.93 67.76-16.93L67.76-16.93L67.76-16.93Q65.73-16.93 63.16-15.32L63.16-15.32L63.16-11.96L63.66-1.15L57.50 0L58.05-11.18L58.05-11.18Q57.87-17.34 57.04-22.22L57.04-22.22L62.61-23.41L62.61-23.41Q62.93-20.75 63.07-18.22L63.07-18.22L63.07-18.22Q63.76-19.14 64.63-20.03L64.63-20.03L64.63-20.03Q65.50-20.93 67.39-22.06L67.39-22.06L67.39-22.06Q69.28-23.18 71.21-23.18L71.21-23.18L71.21-23.18Q73.14-23.18 74.47-21.94L74.47-21.94L74.47-21.94Q75.81-20.70 76.18-18.54L76.18-18.54L76.18-18.54Q79.99-23.18 83.90-23.18L83.90-23.18L83.90-23.18Q86.34-23.18 87.77-21.55L87.77-21.55L87.77-21.55Q89.19-19.92 89.19-17.11L89.19-17.11L88.92-11.96L89.42-0.92L83.21 0.23L83.77-11.64L83.77-11.64Q83.77-14.81 83.21-15.87L83.21-15.87L83.21-15.87Q82.66-16.93 80.68-16.93L80.68-16.93L80.68-16.93Q78.71-16.93 76.22-15.41L76.22-15.41L76.04-11.96L76.54-0.92L70.33 0.23L70.89-11.64" fill="#0b1d27" stroke="none" stroke-width="none" transform="translate(-88.55002450942993,12.261337041854858)" style="fill: rgb(11, 29, 39);"></path></g><g class="path" style="transform: matrix(1, 0, 0, 1, 0, 0); transform-origin: 15.455px 0.626337px; animation: 1.03093s linear -0.378007s infinite normal forwards running bounce-c29df16f-11fa-47a1-8afd-d4294f23406c;"><path d="M100.00 0L100.00 0L100.00 0Q97.52 0 95.98-1.63L95.98-1.63L95.98-1.63Q94.44-3.27 94.44-5.93L94.44-5.93L94.71-11.22L94.21-22.26L100.37-23.41L99.77-9.43L99.77-9.43Q99.77-7.45 100.49-6.53L100.49-6.53L100.49-6.53Q101.20-5.61 102.76-5.61L102.76-5.61L102.76-5.61Q104.33-5.61 107.09-7.18L107.09-7.18L107.09-9.94L106.58-22.03L112.79-23.18L112.24-11.68L112.29-7.91L112.29-7.91Q112.29-4.97 113.80-1.98L113.80-1.98L109.02 0.14L109.02 0.14Q107.50-2.85 107.18-4.65L107.18-4.65L107.18-4.65Q103.04 0 100.00 0" fill="#0b1d27" stroke="none" stroke-width="none" transform="translate(-88.55002450942993,12.261337041854858)" style="fill: rgb(11, 29, 39);"></path></g><g class="path" style="transform: matrix(1, 0, 0, 1, 0, 0); transform-origin: 37.4px 0.486337px; animation: 1.03093s linear -0.302405s infinite normal forwards running bounce-c29df16f-11fa-47a1-8afd-d4294f23406c;"><path d="M122.54 0L122.54 0Q119.83 0 118.11-1.72L118.11-1.72L118.11-1.72Q116.38-3.45 116.38-6.37L116.38-6.37L116.38-6.37Q116.38-9.29 119.05-11.43L119.05-11.43L119.05-11.43Q121.72-13.57 125.53-13.57L125.53-13.57L128.66-13.57L128.66-14.35L128.66-14.35Q128.66-16.61 127.74-17.43L127.74-17.43L127.74-17.43Q126.82-18.26 124.29-18.26L124.29-18.26L124.29-18.26Q123.23-18.26 121.79-17.82L121.79-17.82L121.79-17.82Q120.34-17.39 118.54-16.47L118.54-16.47L117.21-20.10L117.21-20.10Q119.19-21.48 122.02-22.59L122.02-22.59L122.02-22.59Q124.84-23.69 126.68-23.69L126.68-23.69L126.68-23.69Q133.91-23.69 133.91-16.70L133.91-16.70L133.91-7.68L133.91-7.68Q133.91-5.11 135.52-1.93L135.52-1.93L130.64 0.14L130.64 0.14Q129.49-2.07 128.94-3.82L128.94-3.82L128.94-3.82Q126.41 0 122.54 0L122.54 0zM124.48-4.69L124.48-4.69L124.48-4.69Q126.32-4.69 128.66-6.58L128.66-6.58L128.66-9.66L128.66-9.66Q126.22-10.21 124.71-10.21L124.71-10.21L124.71-10.21Q121.81-10.21 121.81-7.64L121.81-7.64L121.81-7.64Q121.81-6.30 122.54-5.50L122.54-5.50L122.54-5.50Q123.28-4.69 124.48-4.69" fill="#0b1d27" stroke="none" stroke-width="none" transform="translate(-88.55002450942993,12.261337041854858)" style="fill: rgb(11, 29, 39);"></path></g><g class="path" style="transform: matrix(1, 0, 0, 1, 0, 0); transform-origin: 56.765px -1.97366px; animation: 1.03093s linear -0.226804s infinite normal forwards running bounce-c29df16f-11fa-47a1-8afd-d4294f23406c;"><path d="M138.64-22.26L141.31-22.26L141.31-27.28L147.52-28.47L146.92-22.26L152.49-22.26L151.98-18.49L146.74-18.49L146.51-8.88L146.51-8.88Q146.51-6.72 146.92-6.00L146.92-6.00L146.92-6.00Q147.34-5.29 148.44-5.29L148.44-5.29L148.44-5.29Q149.55-5.29 151.39-5.80L151.39-5.80L151.66-2.53L151.66-2.53Q148.63 0 146.33 0L146.33 0L146.33 0Q144.03 0 142.55-1.68L142.55-1.68L142.55-1.68Q141.08-3.36 141.08-6.07L141.08-6.07L141.36-11.22L141.31-18.49L138.14-18.49L138.64-22.26" fill="#0b1d27" stroke="none" stroke-width="none" transform="translate(-88.55002450942993,12.261337041854858)" style="fill: rgb(11, 29, 39);"></path></g><g class="path" style="transform: matrix(1, 0, 0, 1, 0, 0); transform-origin: 69.345px 8.99634px; animation: 1.03093s linear -0.151203s infinite normal forwards running bounce-c29df16f-11fa-47a1-8afd-d4294f23406c;"><path d="M154.56-3.08L154.56-3.08L154.56-3.08Q154.56-4.55 155.64-5.68L155.64-5.68L155.64-5.68Q156.72-6.81 158.24-6.81L158.24-6.81L158.24-6.81Q161.23-6.81 161.23-3.77L161.23-3.77L161.23-3.77Q161.23-2.02 160.15-0.87L160.15-0.87L160.15-0.87Q159.07 0.28 157.62 0.28L157.62 0.28L157.62 0.28Q156.17 0.28 155.37-0.67L155.37-0.67L155.37-0.67Q154.56-1.61 154.56-3.08" fill="#0b1d27" stroke="none" stroke-width="none" transform="translate(-88.55002450942993,12.261337041854858)" style="fill: rgb(11, 29, 39);"></path></g><g class="path" style="transform: matrix(1, 0, 0, 1, 0, 0); transform-origin: 78.775px 8.99634px; animation: 1.03093s linear -0.0756014s infinite normal forwards running bounce-c29df16f-11fa-47a1-8afd-d4294f23406c;"><path d="M163.99-3.08L163.99-3.08L163.99-3.08Q163.99-4.55 165.07-5.68L165.07-5.68L165.07-5.68Q166.15-6.81 167.67-6.81L167.67-6.81L167.67-6.81Q170.66-6.81 170.66-3.77L170.66-3.77L170.66-3.77Q170.66-2.02 169.58-0.87L169.58-0.87L169.58-0.87Q168.50 0.28 167.05 0.28L167.05 0.28L167.05 0.28Q165.60 0.28 164.80-0.67L164.80-0.67L164.80-0.67Q163.99-1.61 163.99-3.08" fill="#0b1d27" stroke="none" stroke-width="none" transform="translate(-88.55002450942993,12.261337041854858)" style="fill: rgb(11, 29, 39);"></path></g><g class="path" style="transform: matrix(1, 0, 0, 1, 0, 0); transform-origin: 88.205px 8.99634px; animation: 1.03093s linear 0s infinite normal forwards running bounce-c29df16f-11fa-47a1-8afd-d4294f23406c;"><path d="M173.42-3.08L173.42-3.08L173.42-3.08Q173.42-4.55 174.50-5.68L174.50-5.68L174.50-5.68Q175.58-6.81 177.10-6.81L177.10-6.81L177.10-6.81Q180.09-6.81 180.09-3.77L180.09-3.77L180.09-3.77Q180.09-2.02 179.01-0.87L179.01-0.87L179.01-0.87Q177.93 0.28 176.48 0.28L176.48 0.28L176.48 0.28Q175.03 0.28 174.23-0.67L174.23-0.67L174.23-0.67Q173.42-1.61 173.42-3.08" fill="#0b1d27" stroke="none" stroke-width="none" transform="translate(-88.55002450942993,12.261337041854858)" style="fill: rgb(11, 29, 39);"></path></g></g>
</g>
</g>
<style id="bounce-c29df16f-11fa-47a1-8afd-d4294f23406c" data-anikit="">@keyframes bounce-c29df16f-11fa-47a1-8afd-d4294f23406c
{
  0% {
    animation-timing-function: cubic-bezier(0.1361,0.2514,0.2175,0.8786);
    transform: translate(0,0px) scaleY(1);
  }
  37% {
    animation-timing-function: cubic-bezier(0.7674,0.1844,0.8382,0.7157);
    transform: translate(0,-39.96px) scaleY(1);
  }
  72% {
    animation-timing-function: cubic-bezier(0.1118,0.2149,0.2172,0.941);
    transform: translate(0,0px) scaleY(1);
  }
  87% {
    animation-timing-function: cubic-bezier(0.7494,0.2259,0.8209,0.6963);
    transform: translate(0,19.900000000000002px) scaleY(0.602);
  }
  100% {
    transform: translate(0,0px) scaleY(1);
  }
}</style></svg>